<svg version="1.1" id="Layer_1" xmlns="http://www.w3.org/2000/svg" xmlns:xlink="http://www.w3.org/1999/xlink" x="0px" y="0px"
	 width="100%" viewBox="0 0 395 358" enable-background="new 0 0 395 358" xml:space="preserve">
<path fill="currentColor" opacity="1.000000" stroke="none"
	d="
M396.000000,187.532059
	C391.271088,199.603271 381.883423,205.599136 370.795685,210.371689
	C264.079803,256.305908 157.466370,302.478241 50.813549,348.559113
	C41.859592,352.427795 32.579678,354.564148 23.308163,350.096497
	C6.874223,342.177521 1.078345,324.637909 9.863168,307.829529
	C26.517487,275.964020 43.668724,244.357880 60.677376,212.678284
	C64.373787,205.793503 70.059387,201.712646 78.016068,200.735062
	C106.604263,197.222626 135.175064,193.568878 163.754364,189.983871
	C178.129807,188.180634 192.526596,186.532089 206.869965,184.503983
	C209.225174,184.170959 212.159424,182.776260 213.407623,180.918961
	C215.548248,177.733749 212.974396,174.311768 208.014938,173.641632
	C193.328415,171.657181 178.613464,169.882645 163.908813,168.032608
	C135.330872,164.437119 106.760239,160.781693 78.169228,157.293289
	C69.784950,156.270309 64.121506,151.798996 60.240654,144.598557
	C43.575333,113.677940 26.797155,82.817535 10.274059,51.821129
	C0.972932,34.372738 6.611936,15.736207 23.570021,7.775241
	C32.681465,3.497876 41.832909,5.561040 50.624687,9.355478
	C104.112915,32.440434 157.575394,55.585030 211.054535,78.691040
	C265.450745,102.193291 319.852692,125.682396 374.261169,149.156296
	C383.922180,153.324432 391.922058,159.145264 395.684998,169.838623
	C396.000000,175.688034 396.000000,181.376083 396.000000,187.532059
z"/>
</svg>
